<?xml version="1.0" encoding="UTF-8"?>
<svg width="128" height="128" viewBox="0 0 128 128" fill="none" xmlns="http://www.w3.org/2000/svg">
  <!-- Background circle -->
  <circle cx="64" cy="64" r="60" fill="#1e3a5f"/>
  
  <!-- T letter stylized -->
  <path d="M32 32 H96 V44 H70 V96 H58 V44 H32 V32Z" fill="#4dabf7"/>
  
  <!-- S letter stylized (smaller, offset) -->
  <path d="M72 60 Q88 60 88 72 Q88 84 72 84 H64 Q56 84 56 92 Q56 100 72 100 H88 V92 H72 Q68 92 68 88 Q68 84 72 84 H80 Q96 84 96 72 Q96 60 80 60 H72 Q68 60 68 56 Q68 52 72 52 H88 V44 H72 Q56 44 56 56 Q56 68 72 60Z" fill="#69db7c" opacity="0.9"/>
  
  <!-- Decorative dots representing roles -->
  <circle cx="28" cy="100" r="4" fill="#ff6b6b"/>
  <circle cx="40" cy="100" r="4" fill="#ffd43b"/>
  <circle cx="52" cy="100" r="4" fill="#69db7c"/>
  <circle cx="76" cy="100" r="4" fill="#4dabf7"/>
  <circle cx="88" cy="100" r="4" fill="#da77f2"/>
  <circle cx="100" cy="100" r="4" fill="#ff922b"/>
</svg>
